<svg xmlns="http://www.w3.org/2000/svg" viewBox="0 0 1200 900" preserveAspectRatio="xMidYMid slice">
<defs>
  <linearGradient id="sky" x1="0" y1="0" x2="0" y2="1"><stop stop-color="#06131e"/><stop offset=".56" stop-color="#0b2b3f"/><stop offset="1" stop-color="#174a56"/></linearGradient>
  <radialGradient id="moon"><stop stop-color="#ffe6ad"/><stop offset=".7" stop-color="#f4aa70"/><stop offset="1" stop-color="#dd714d"/></radialGradient>
  <linearGradient id="cloud" x1="0" y1="0" x2="1" y2="1"><stop stop-color="#f1ad88"/><stop offset=".56" stop-color="#cf766b"/><stop offset="1" stop-color="#684653"/></linearGradient>
  <linearGradient id="water" x1="0" y1="0" x2="0" y2="1"><stop stop-color="#1b5a68"/><stop offset="1" stop-color="#061923"/></linearGradient>
  <filter id="grain"><feTurbulence type="fractalNoise" baseFrequency=".68" numOctaves="3" seed="37"/><feColorMatrix type="saturate" values="0"/><feComponentTransfer><feFuncA type="table" tableValues="0 .055"/></feComponentTransfer></filter>
  <filter id="glow"><feGaussianBlur stdDeviation="7" result="b"/><feMerge><feMergeNode in="b"/><feMergeNode in="SourceGraphic"/></feMerge></filter>
</defs>
<rect width="1200" height="900" fill="url(#sky)"/>
<g fill="#fff1cc" opacity=".9"><circle cx="72" cy="74" r="2"/><circle cx="150" cy="112" r="1.5"/><circle cx="226" cy="66" r="2.2"/><circle cx="318" cy="128" r="1.7"/><circle cx="405" cy="82" r="2.1"/><circle cx="502" cy="114" r="1.6"/><circle cx="592" cy="61" r="2.2"/><circle cx="676" cy="117" r="1.7"/><circle cx="755" cy="81" r="2.1"/><circle cx="844" cy="136" r="1.9"/><circle cx="945" cy="72" r="1.8"/><circle cx="1110" cy="95" r="2"/></g>
<g stroke="#f1cf99" stroke-width="2.2" opacity=".72"><path d="M193 95h21M203.5 84.5v21"/><path d="M744 104h18M753 95v18"/><path d="M1090 168h25M1102.5 155.5v25"/></g>
<circle cx="965" cy="145" r="84" fill="#ef9b68" opacity=".15" filter="url(#glow)"/><circle cx="965" cy="145" r="60" fill="url(#moon)" stroke="#f9d39d" stroke-width="3"/>
<g fill="#c96e5b" opacity=".26"><circle cx="946" cy="130" r="7"/><circle cx="983" cy="160" r="10"/><circle cx="956" cy="174" r="5"/></g>
<g fill="url(#cloud)" stroke="#eeab89" stroke-width="3.2"><path d="M-55 160c45-45 97-57 144-32 39-43 101-44 139-4 40-25 89-18 120 15 38-16 80-3 111 30-122 30-273 35-514 17z"/><path d="M785 244c36-46 81-58 123-34 35-37 88-39 124-7 39-25 89-18 121 18 49-14 99 7 137 45v45c-145 2-315-25-505-67z"/><path d="M740 306c27-27 61-32 91-15 30-19 65-15 91 10 26-12 56-5 81 18-82 15-169 12-263-13z" opacity=".6"/></g>
<g fill="none" stroke="#734752" stroke-width="2.2" opacity=".5"><path d="M-12 168c86 24 170 28 246 21 73-6 139-20 202-37"/><path d="M815 250c118 31 247 46 361 49"/></g>
<g fill="#061219" stroke="#e89550" stroke-width="2"><path d="M410 580h28V438h-28z"/><path d="M445 580h40V390h-40z"/><path d="M492 580h25V456h-25z"/><path d="M524 580h48V345h-48z"/><path d="M580 580h31V422h-31z"/><path d="M618 580h24V398h-24z"/><path d="M650 580h46V446h-46z"/><path d="M703 580h31V376h-31z"/><path d="M742 580h49V430h-49z"/><path d="M798 580h35V406h-35z"/><path d="M840 580h25V462h-25z"/><path d="M872 580h42V389h-42z"/><path d="M922 580h30V430h-30z"/></g>
<g fill="#f6b664"><rect x="455" y="418" width="5" height="8"/><rect x="543" y="376" width="6" height="8"/><rect x="593" y="449" width="5" height="8"/><rect x="714" y="406" width="5" height="8"/><rect x="757" y="453" width="6" height="8"/><rect x="809" y="436" width="5" height="8"/><rect x="886" y="421" width="6" height="8"/></g>
<path d="M0 565c180-28 365-23 554 12 203 38 418 22 646-49v372H0z" fill="url(#water)"/><path d="M0 610c248-52 493-55 735-17 171 27 326 18 465-25" fill="none" stroke="#e8a459" stroke-width="6" opacity=".7"/>
<path d="M235 590h800" stroke="#06131a" stroke-width="18"/><path d="M270 590c0-59 49-104 108-104s108 45 108 104M548 590c0-59 49-104 108-104s108 45 108 104M825 590c0-59 49-104 108-104s108 45 108 104" fill="none" stroke="#06131a" stroke-width="10"/>
<g opacity=".48" stroke="#e9a65b" stroke-width="3"><path d="M365 626l-70 178"/><path d="M540 616l-24 190"/><path d="M710 614l30 187"/><path d="M890 608l82 184"/></g>
<g fill="#163629" stroke="#e39a58" stroke-width="3.5"><path d="M60 824V665c0-37 18-56 39-56s38 19 38 56v43c10-20 20-31 38-31s31 13 31 32v43c0 19-12 31-31 31h-38v41z"/><path d="M1067 824V682c0-34 16-51 35-51s34 17 34 51v38c9-17 18-27 34-27s28 12 28 29v38c0 17-11 28-29 28h-33v36z"/></g>
<g fill="#1c1d1b" stroke="#d98d50" stroke-width="2.5"><path d="M0 850l76-73 74 73z"/><path d="M956 854l83-77 83 77z"/></g><g fill="#de7d4d" opacity=".82"><path d="M223 788c29-28 61-34 93-16 28-22 62-16 90 15-60 16-122 16-183 1z"/></g>
<rect width="1200" height="900" filter="url(#grain)"/>
</svg>