<svg xmlns="http://www.w3.org/2000/svg" viewBox="0 0 1600 900" preserveAspectRatio="xMidYMid slice">
<defs>
 <linearGradient id="sky" x1="0" y1="0" x2="0" y2="1"><stop stop-color="#06111d"/><stop offset=".48" stop-color="#113149"/><stop offset=".82" stop-color="#1f5362"/><stop offset="1" stop-color="#123541"/></linearGradient>
 <linearGradient id="water" x1="0" y1="0" x2="0" y2="1"><stop stop-color="#174e62"/><stop offset=".52" stop-color="#1b6170"/><stop offset="1" stop-color="#071b25"/></linearGradient>
 <linearGradient id="cloudA" x1="0" y1="0" x2="1" y2="1"><stop stop-color="#ffe0b8"/><stop offset=".38" stop-color="#f5b196"/><stop offset=".72" stop-color="#d78379"/><stop offset="1" stop-color="#72798a"/></linearGradient>
 <linearGradient id="cloudB" x1="0" y1="0" x2="1" y2="1"><stop stop-color="#d3d9cf"/><stop offset=".5" stop-color="#9eaaa5"/><stop offset="1" stop-color="#647077"/></linearGradient>
 <radialGradient id="moon"><stop stop-color="#fff7c7"/><stop offset=".55" stop-color="#ffe19c"/><stop offset="1" stop-color="#f09b6d"/></radialGradient>
 <filter id="grain"><feTurbulence type="fractalNoise" baseFrequency=".95" numOctaves="2" seed="41"/><feColorMatrix type="saturate" values="0"/><feComponentTransfer><feFuncA type="table" tableValues="0 .045"/></feComponentTransfer></filter>
 <filter id="moonGlow"><feGaussianBlur stdDeviation="24"/></filter>
</defs>

<rect width="1600" height="900" fill="url(#sky)"/>

<!-- stars -->
<g fill="#f9eac0" opacity=".9">
 <circle cx="82" cy="96" r="2"/><circle cx="146" cy="140" r="2.4"/><circle cx="213" cy="78" r="1.7"/><circle cx="282" cy="124" r="2.2"/><circle cx="350" cy="88" r="1.6"/>
 <circle cx="420" cy="150" r="2.5"/><circle cx="504" cy="78" r="1.7"/><circle cx="570" cy="119" r="2.1"/><circle cx="645" cy="62" r="2.2"/><circle cx="725" cy="134" r="1.9"/>
 <circle cx="812" cy="83" r="2.4"/><circle cx="891" cy="141" r="1.9"/><circle cx="984" cy="78" r="2"/><circle cx="1070" cy="118" r="2.3"/><circle cx="1148" cy="65" r="1.7"/>
 <circle cx="1229" cy="119" r="2.4"/><circle cx="1322" cy="80" r="2"/><circle cx="1405" cy="140" r="2.5"/><circle cx="1502" cy="94" r="1.8"/>
</g>
<g stroke="#f6d89a" stroke-width="2.1" opacity=".7"><path d="M316 170h25M328.5 157.5v25"/><path d="M768 145h19M777.5 135.5v19"/><path d="M1387 176h28M1401 162v28"/></g>

<!-- moon -->
<circle cx="1260" cy="160" r="112" fill="#f7b66e" opacity=".14" filter="url(#moonGlow)"/>
<circle cx="1260" cy="160" r="70" fill="url(#moon)" stroke="#ffe3a4" stroke-width="3"/>
<g fill="#d99574" opacity=".35"><circle cx="1238" cy="138" r="12"/><circle cx="1281" cy="150" r="9"/><circle cx="1267" cy="181" r="15"/></g>

<!-- cloud bank left -->
<g>
 <path d="M-70 248c54-61 118-76 176-44 44-66 126-81 191-30 51-46 125-45 176-1 44-25 97-19 151 18 31 22 55 47 74 77-170 52-438 66-768 33z" fill="url(#cloudA)" stroke="#ca786e" stroke-width="3"/>
 <g fill="url(#cloudB)" opacity=".74">
  <ellipse cx="70" cy="218" rx="70" ry="40"/><ellipse cx="177" cy="192" rx="78" ry="47"/><ellipse cx="285" cy="211" rx="86" ry="52"/><ellipse cx="397" cy="198" rx="82" ry="48"/><ellipse cx="514" cy="226" rx="93" ry="50"/>
 </g>
</g>

<!-- cloud bank right -->
<g>
 <path d="M830 245c51-61 118-76 179-40 48-66 132-79 199-23 52-48 130-48 187 2 66-39 147-26 245 48v102c-263 12-526-17-810-89z" fill="url(#cloudA)" stroke="#d67d70" stroke-width="3"/>
 <g fill="url(#cloudB)" opacity=".67">
  <ellipse cx="914" cy="215" rx="82" ry="44"/><ellipse cx="1032" cy="187" rx="90" ry="51"/><ellipse cx="1160" cy="208" rx="98" ry="56"/><ellipse cx="1306" cy="220" rx="108" ry="59"/><ellipse cx="1450" cy="246" rx="120" ry="62"/>
 </g>
</g>

<!-- distant hills -->
<path d="M0 472c166-87 326-92 480-17 136 66 281 70 435 15 186-67 383-74 685-1v141H0z" fill="#102c34"/>
<path d="M0 511c210-59 410-54 594 5 171 55 362 59 535 0 151-51 307-50 471-1v132H0z" fill="#183b43"/>

<!-- river -->
<path d="M0 535c293-38 564-28 813 26 257 56 525 31 787-40v379H0z" fill="url(#water)"/>
<path d="M0 596c288-48 585-53 890-9 233 34 467 17 710-50" fill="none" stroke="#e4a45c" stroke-width="5" opacity=".45"/>

<!-- skyline -->
<g>
 <g fill="#0a141c" stroke="#e99757" stroke-width="2.2">
  <path d="M654 530V386h41v144z"/><path d="M703 530V330h52v200z"/><path d="M764 530V408h35v122z"/><path d="M808 530V284h62v246z"/><path d="M879 530V365h40v165z"/><path d="M928 530V318h46v212z"/><path d="M984 530V388h52v142z"/><path d="M1046 530V297h50v233z"/><path d="M1106 530V346h54v184z"/><path d="M1168 530V303h47v227z"/><path d="M1224 530V373h38v157z"/><path d="M1272 530V336h56v194z"/>
  <path d="M822 284h35l-8-30h-19z"/><path d="M1070 297h8v-56h7v56z"/>
 </g>
 <g fill="#ffc46c">
  <rect x="665" y="411" width="6" height="9"/><rect x="681" y="440" width="6" height="9"/>
  <rect x="718" y="357" width="7" height="10"/><rect x="738" y="387" width="7" height="10"/><rect x="822" y="316" width="7" height="10"/><rect x="843" y="348" width="7" height="10"/>
  <rect x="892" y="392" width="6" height="9"/><rect x="944" y="350" width="6" height="9"/><rect x="960" y="382" width="6" height="9"/>
  <rect x="1060" y="329" width="6" height="9"/><rect x="1080" y="363" width="6" height="9"/><rect x="1123" y="373" width="6" height="9"/>
  <rect x="1182" y="331" width="6" height="9"/><rect x="1201" y="364" width="6" height="9"/><rect x="1287" y="365" width="6" height="9"/>
 </g>
</g>

<!-- bridge -->
<path d="M390 582h846" stroke="#06131a" stroke-width="22"/>
<path d="M425 582c0-67 56-117 123-117s123 50 123 117M720 582c0-67 56-117 123-117s123 50 123 117M1016 582c0-67 56-117 123-117s123 50 123 117" fill="none" stroke="#06131a" stroke-width="12"/>

<!-- reflection glints -->
<g stroke="#efb663" stroke-width="4" opacity=".38">
 <path d="M716 545l-55 273"/><path d="M782 536l-25 318"/><path d="M840 539l8 307"/><path d="M930 532l45 298"/><path d="M1050 534l82 274"/><path d="M1162 529l106 240"/>
</g>

<!-- left foreground cliff, trees, rocks -->
<path d="M0 666c90-83 181-119 275-106 85 12 143 58 210 136v204H0z" fill="#071914"/>
<g fill="#10291e" stroke="#b96f4d" stroke-width="2.2">
 <circle cx="48" cy="628" r="62"/><circle cx="104" cy="582" r="72"/><circle cx="174" cy="616" r="82"/><circle cx="254" cy="590" r="68"/><circle cx="333" cy="633" r="82"/>
</g>
<g fill="#67463c" stroke="#d38257" stroke-width="2.2">
 <path d="M228 714c22-39 58-53 98-36 35 15 49 47 39 85H202c-3-18 6-34 26-49z"/>
 <path d="M72 760c17-34 50-49 84-35 31 13 46 40 39 72H48c-5-17 3-29 24-37z"/>
</g>
<g fill="#204833" stroke="#e39b5c" stroke-width="3">
 <path d="M70 900V735c0-38 19-59 41-59 21 0 40 21 40 59v44c9-20 21-32 38-32 18 0 31 13 31 32v41c0 20-12 31-32 31h-37v49z"/>
</g>

<!-- right foreground -->
<path d="M1292 720c62-72 132-103 210-92 42 6 75 24 98 47v225h-308z" fill="#081b16"/>
<g fill="#153326" stroke="#b96f4d" stroke-width="2.3"><circle cx="1362" cy="661" r="62"/><circle cx="1445" cy="636" r="72"/><circle cx="1528" cy="686" r="88"/></g>
<g fill="#70483c" stroke="#d88659" stroke-width="2.2"><path d="M1334 770c17-35 48-48 82-34 31 12 44 38 38 70h-140c-5-15 2-27 20-36z"/></g>
<g fill="#214a35" stroke="#e5a15f" stroke-width="3">
 <path d="M1458 900V722c0-40 20-62 43-62 22 0 41 22 41 62v49c10-21 22-33 40-33 19 0 32 13 32 34v44c0 21-13 33-33 33h-39v51z"/>
</g>

<!-- texture -->
<rect width="1600" height="900" filter="url(#grain)"/>
</svg>